<mxfile host="app.diagrams.net" modified="2024-02-19T15:13:34.320Z" agent="Mozilla/5.0 (Windows NT 10.0; Win64; x64) AppleWebKit/537.36 (KHTML, like Gecko) Chrome/121.0.0.0 Safari/537.36" etag="lf_Ndvdk_hWJzliGVrqA" version="23.1.4" type="github">
  <diagram name="第 1 页" id="IgGB-zKed3-jcFs32UBX">
    <mxGraphModel dx="1036" dy="652" grid="1" gridSize="10" guides="1" tooltips="1" connect="1" arrows="1" fold="1" page="1" pageScale="1" pageWidth="827" pageHeight="1169" background="#FFFFFF" math="0" shadow="0">
      <root>
        <mxCell id="0" />
        <mxCell id="1" parent="0" />
        <mxCell id="LiO9ctsY5vWAiATXnDTC-1" value="&lt;font style=&quot;font-size: 14px;&quot;&gt;vmac_northIF&lt;/font&gt;" style="rounded=1;whiteSpace=wrap;html=1;strokeColor=#004C99;strokeWidth=2;fontColor=#FFFFFF;fillColor=#0066CC;" vertex="1" parent="1">
          <mxGeometry x="72" y="167" width="118" height="33" as="geometry" />
        </mxCell>
        <mxCell id="LiO9ctsY5vWAiATXnDTC-5" value="" style="endArrow=none;dashed=1;html=1;rounded=0;entryX=0.162;entryY=1;entryDx=0;entryDy=0;entryPerimeter=0;strokeColor=#007FFF;strokeWidth=2;" edge="1" parent="1" target="LiO9ctsY5vWAiATXnDTC-1">
          <mxGeometry width="50" height="50" relative="1" as="geometry">
            <mxPoint x="96" y="626" as="sourcePoint" />
            <mxPoint x="296" y="356" as="targetPoint" />
          </mxGeometry>
        </mxCell>
        <mxCell id="LiO9ctsY5vWAiATXnDTC-7" value="&lt;font style=&quot;font-size: 14px;&quot;&gt;TBGen&lt;/font&gt;" style="rounded=1;whiteSpace=wrap;html=1;strokeColor=#CC0000;strokeWidth=2;fillColor=#FF0000;fontColor=#FFFFFF;" vertex="1" parent="1">
          <mxGeometry x="710" y="167" width="83" height="33" as="geometry" />
        </mxCell>
        <mxCell id="LiO9ctsY5vWAiATXnDTC-8" value="&lt;font style=&quot;font-size: 14px;&quot;&gt;CPU0_thread&lt;/font&gt;" style="rounded=1;whiteSpace=wrap;html=1;strokeColor=#004C99;strokeWidth=2;fillColor=#0066CC;fontColor=#FFFFFF;" vertex="1" parent="1">
          <mxGeometry x="437" y="167" width="123" height="33" as="geometry" />
        </mxCell>
        <mxCell id="LiO9ctsY5vWAiATXnDTC-9" value="" style="endArrow=none;dashed=1;html=1;rounded=0;entryX=0.162;entryY=1;entryDx=0;entryDy=0;entryPerimeter=0;strokeColor=#007FFF;strokeWidth=2;" edge="1" parent="1">
          <mxGeometry width="50" height="50" relative="1" as="geometry">
            <mxPoint x="350" y="626" as="sourcePoint" />
            <mxPoint x="347" y="200" as="targetPoint" />
          </mxGeometry>
        </mxCell>
        <mxCell id="LiO9ctsY5vWAiATXnDTC-10" value="&lt;font style=&quot;font-size: 14px;&quot;&gt;vmac_southIF&lt;/font&gt;" style="rounded=1;whiteSpace=wrap;html=1;strokeColor=#004C99;strokeWidth=2;fontColor=#FFFFFF;fillColor=#0066CC;" vertex="1" parent="1">
          <mxGeometry x="270" y="167" width="120" height="33" as="geometry" />
        </mxCell>
        <mxCell id="LiO9ctsY5vWAiATXnDTC-11" value="msgQ" style="endArrow=classic;html=1;rounded=0;strokeColor=#0066CC;fontSize=12;fontColor=#0066CC;" edge="1" parent="1">
          <mxGeometry width="50" height="50" relative="1" as="geometry">
            <mxPoint x="96" y="240" as="sourcePoint" />
            <mxPoint x="336" y="240" as="targetPoint" />
          </mxGeometry>
        </mxCell>
        <mxCell id="LiO9ctsY5vWAiATXnDTC-14" value="MSG_TYPE_PHY_CONFIG_REQ" style="text;html=1;align=center;verticalAlign=middle;resizable=0;points=[];autosize=1;strokeColor=none;fillColor=none;" vertex="1" parent="1">
          <mxGeometry x="110" y="215" width="210" height="30" as="geometry" />
        </mxCell>
        <mxCell id="LiO9ctsY5vWAiATXnDTC-15" value="MSG_TYPE_PHY_CONFIG_RESP" style="text;html=1;align=center;verticalAlign=middle;resizable=0;points=[];autosize=1;strokeColor=none;fillColor=none;" vertex="1" parent="1">
          <mxGeometry x="113" y="240" width="210" height="30" as="geometry" />
        </mxCell>
        <mxCell id="LiO9ctsY5vWAiATXnDTC-17" value="" style="endArrow=classic;html=1;rounded=0;strokeColor=#0066CC;fontSize=12;" edge="1" parent="1">
          <mxGeometry width="50" height="50" relative="1" as="geometry">
            <mxPoint x="340" y="264" as="sourcePoint" />
            <mxPoint x="90" y="264" as="targetPoint" />
          </mxGeometry>
        </mxCell>
        <mxCell id="LiO9ctsY5vWAiATXnDTC-19" value="msgQ" style="edgeLabel;html=1;align=center;verticalAlign=middle;resizable=0;points=[];fontColor=#0066CC;" vertex="1" connectable="0" parent="LiO9ctsY5vWAiATXnDTC-17">
          <mxGeometry x="-0.408" relative="1" as="geometry">
            <mxPoint x="-56" as="offset" />
          </mxGeometry>
        </mxCell>
        <mxCell id="LiO9ctsY5vWAiATXnDTC-18" value="MSG_TYPE_PHY_START_REQ" style="text;html=1;align=center;verticalAlign=middle;resizable=0;points=[];autosize=1;strokeColor=none;fillColor=none;" vertex="1" parent="1">
          <mxGeometry x="118" y="304" width="200" height="30" as="geometry" />
        </mxCell>
        <mxCell id="LiO9ctsY5vWAiATXnDTC-20" value="" style="endArrow=classic;html=1;rounded=0;strokeColor=#0066CC;fontSize=12;" edge="1" parent="1">
          <mxGeometry width="50" height="50" relative="1" as="geometry">
            <mxPoint x="103" y="330" as="sourcePoint" />
            <mxPoint x="340" y="330" as="targetPoint" />
          </mxGeometry>
        </mxCell>
        <mxCell id="LiO9ctsY5vWAiATXnDTC-21" value="msgQ" style="edgeLabel;html=1;align=center;verticalAlign=middle;resizable=0;points=[];fontColor=#0066CC;" vertex="1" connectable="0" parent="LiO9ctsY5vWAiATXnDTC-20">
          <mxGeometry x="-0.408" relative="1" as="geometry">
            <mxPoint x="37" as="offset" />
          </mxGeometry>
        </mxCell>
        <mxCell id="LiO9ctsY5vWAiATXnDTC-22" value="MSG_TYPE_PHY_START_RESP" style="text;html=1;align=center;verticalAlign=middle;resizable=0;points=[];autosize=1;strokeColor=none;fillColor=none;" vertex="1" parent="1">
          <mxGeometry x="120" y="333" width="200" height="30" as="geometry" />
        </mxCell>
        <mxCell id="LiO9ctsY5vWAiATXnDTC-23" value="" style="endArrow=classic;html=1;rounded=0;strokeColor=#0066CC;fontSize=12;" edge="1" parent="1">
          <mxGeometry width="50" height="50" relative="1" as="geometry">
            <mxPoint x="346" y="359" as="sourcePoint" />
            <mxPoint x="96" y="359" as="targetPoint" />
          </mxGeometry>
        </mxCell>
        <mxCell id="LiO9ctsY5vWAiATXnDTC-24" value="msgQ" style="edgeLabel;html=1;align=center;verticalAlign=middle;resizable=0;points=[];fontColor=#0066CC;" vertex="1" connectable="0" parent="LiO9ctsY5vWAiATXnDTC-23">
          <mxGeometry x="-0.408" relative="1" as="geometry">
            <mxPoint x="-56" as="offset" />
          </mxGeometry>
        </mxCell>
        <mxCell id="LiO9ctsY5vWAiATXnDTC-26" value="" style="endArrow=none;dashed=1;html=1;rounded=0;entryX=0.162;entryY=1;entryDx=0;entryDy=0;entryPerimeter=0;strokeColor=#FF0000;strokeWidth=2;" edge="1" parent="1">
          <mxGeometry width="50" height="50" relative="1" as="geometry">
            <mxPoint x="753" y="626" as="sourcePoint" />
            <mxPoint x="750" y="200" as="targetPoint" />
          </mxGeometry>
        </mxCell>
        <mxCell id="LiO9ctsY5vWAiATXnDTC-28" value="&lt;font color=&quot;#003469&quot;&gt;&lt;b&gt;tickEvent_runningLoop&lt;br&gt;_softtick_busyloop_from_e200()&lt;/b&gt;&lt;/font&gt;" style="rounded=1;whiteSpace=wrap;html=1;strokeColor=#004C99;strokeWidth=2;align=left;glass=0;sketch=1;curveFitting=1;jiggle=2;" vertex="1" parent="1">
          <mxGeometry x="398.5" y="220" width="200" height="50" as="geometry" />
        </mxCell>
        <mxCell id="LiO9ctsY5vWAiATXnDTC-31" value="&lt;font color=&quot;#ff0000&quot;&gt;HIF&lt;/font&gt;" style="endArrow=classic;html=1;rounded=0;strokeColor=#FF0000;" edge="1" parent="1">
          <mxGeometry width="50" height="50" relative="1" as="geometry">
            <mxPoint x="598.5" y="260" as="sourcePoint" />
            <mxPoint x="750" y="260" as="targetPoint" />
          </mxGeometry>
        </mxCell>
        <mxCell id="LiO9ctsY5vWAiATXnDTC-34" value="&lt;font style=&quot;&quot; color=&quot;#a60000&quot;&gt;&lt;b&gt;vGp0InterruptHdl()&lt;/b&gt;&lt;/font&gt;" style="rounded=1;whiteSpace=wrap;html=1;strokeColor=#FF0000;strokeWidth=2;align=left;glass=0;sketch=1;curveFitting=1;jiggle=2;" vertex="1" parent="1">
          <mxGeometry x="700" y="297" width="118.5" height="36" as="geometry" />
        </mxCell>
        <mxCell id="LiO9ctsY5vWAiATXnDTC-36" value="&lt;font color=&quot;#006600&quot;&gt;shm&lt;/font&gt;" style="endArrow=classic;html=1;rounded=0;entryX=0.448;entryY=1.1;entryDx=0;entryDy=0;entryPerimeter=0;strokeColor=#006600;" edge="1" parent="1" target="LiO9ctsY5vWAiATXnDTC-28">
          <mxGeometry x="-0.0398" y="-6" width="50" height="50" relative="1" as="geometry">
            <mxPoint x="600" y="370" as="sourcePoint" />
            <mxPoint x="470" y="340" as="targetPoint" />
            <mxPoint x="-1" as="offset" />
          </mxGeometry>
        </mxCell>
        <mxCell id="LiO9ctsY5vWAiATXnDTC-37" value="&lt;font color=&quot;#003469&quot;&gt;BrokerMem&lt;/font&gt;" style="swimlane;whiteSpace=wrap;html=1;strokeColor=#003469;" vertex="1" parent="1">
          <mxGeometry x="520" y="370" width="180" height="50" as="geometry" />
        </mxCell>
        <mxCell id="LiO9ctsY5vWAiATXnDTC-38" value="shm" style="endArrow=classic;html=1;rounded=0;entryX=0.5;entryY=0;entryDx=0;entryDy=0;strokeColor=#006600;fontColor=#006600;" edge="1" parent="1">
          <mxGeometry width="50" height="50" relative="1" as="geometry">
            <mxPoint x="730" y="334" as="sourcePoint" />
            <mxPoint x="621.5" y="370" as="targetPoint" />
          </mxGeometry>
        </mxCell>
        <mxCell id="LiO9ctsY5vWAiATXnDTC-39" value="timestamp" style="text;html=1;align=center;verticalAlign=middle;resizable=0;points=[];autosize=1;strokeColor=none;fillColor=none;" vertex="1" parent="1">
          <mxGeometry x="570" y="393" width="80" height="30" as="geometry" />
        </mxCell>
        <mxCell id="LiO9ctsY5vWAiATXnDTC-40" value="AxiAddr" style="text;html=1;align=center;verticalAlign=middle;resizable=0;points=[];autosize=1;strokeColor=none;fillColor=none;" vertex="1" parent="1">
          <mxGeometry x="630" y="230" width="70" height="30" as="geometry" />
        </mxCell>
        <mxCell id="LiO9ctsY5vWAiATXnDTC-42" value="get tick" style="text;html=1;align=center;verticalAlign=middle;resizable=0;points=[];autosize=1;strokeColor=none;fillColor=none;" vertex="1" parent="1">
          <mxGeometry x="520" y="290" width="60" height="30" as="geometry" />
        </mxCell>
        <mxCell id="LiO9ctsY5vWAiATXnDTC-43" value="slot tick" style="text;html=1;align=center;verticalAlign=middle;resizable=0;points=[];autosize=1;strokeColor=none;fillColor=none;" vertex="1" parent="1">
          <mxGeometry x="630" y="320" width="60" height="30" as="geometry" />
        </mxCell>
      </root>
    </mxGraphModel>
  </diagram>
</mxfile>
